# Blender v2.82 (sub 7) OBJ File: 'lowpoly_gamerroom_color.blend'
# www.blender.org
mtllib Computer1.mtl
o Plane.006_Plane.137
v 2.864398 -0.703904 2.613236
v 3.237482 -0.703904 2.234466
v 2.485628 -0.703904 2.240153
v 2.858712 -0.703904 1.861382
v 2.326771 -0.492737 2.241354
v 2.865600 -0.492737 2.772093
v 3.396339 -0.492737 2.233264
v 2.857510 -0.492737 1.702526
v 2.857421 -0.502910 1.690744
v 3.408121 -0.502910 2.233175
v 2.865689 -0.502910 2.783875
v 2.314990 -0.502910 2.241443
v 3.400969 -0.683188 2.233229
v 2.322142 -0.683188 2.241389
v 2.857475 -0.683188 1.697896
v 2.865635 -0.683188 2.776723
v 2.857421 -0.674475 1.690744
v 2.865689 -0.674475 2.783875
v 3.408121 -0.674475 2.233175
v 2.314990 -0.674475 2.241443
v 3.050940 -0.703904 2.423851
v 2.672170 -0.703904 2.050767
v 3.130969 -0.492737 2.502679
v 2.592141 -0.492737 1.971940
v 3.136905 -0.502910 2.508525
v 2.586205 -0.502910 1.966093
v 2.589808 -0.683188 1.969642
v 3.133302 -0.683188 2.504976
v 2.586205 -0.674475 1.966093
v 3.136905 -0.674475 2.508525
v 2.843405 -0.567659 1.704974
v 2.865689 -0.549469 2.783875
v 3.408121 -0.549469 2.233175
v 2.314990 -0.549469 2.241443
v 2.600222 -0.567659 1.951863
v 3.136905 -0.549469 2.508525
v 3.408121 -0.617231 2.233175
v 2.314990 -0.617231 2.241443
v 2.843405 -0.599041 1.704974
v 2.865689 -0.617231 2.783875
v 2.600222 -0.599041 1.951863
v 3.136905 -0.617231 2.508525
v 2.857421 -0.617231 1.690744
v 2.857421 -0.549469 1.690744
v 2.586205 -0.617231 1.966093
v 2.586205 -0.549469 1.966093
v 2.848175 -0.605232 1.700131
v 2.848175 -0.561469 1.700131
v 2.595452 -0.605232 1.956706
v 2.595452 -0.561469 1.956706
v 2.822463 -0.587899 1.729086
v 2.822463 -0.578801 1.729086
v 2.624014 -0.587899 1.930559
v 2.624014 -0.578801 1.930559
v 2.864991 -0.605232 1.716695
v 2.864991 -0.561469 1.716695
v 2.612268 -0.605232 1.973270
v 2.612268 -0.561469 1.973270
v 2.860221 -0.599041 1.721537
v 2.860221 -0.567659 1.721537
v 2.617038 -0.599041 1.968427
v 2.617038 -0.567659 1.968427
v 3.193677 -0.703904 2.278939
v 3.334023 -0.492737 2.296530
v 2.793732 -0.502910 1.755403
v 2.794620 -0.683188 1.761709
v 2.793732 -0.674475 1.755403
v 2.814907 -0.703904 1.905855
v 2.795194 -0.492737 1.765791
v 3.344432 -0.502910 2.297835
v 3.338113 -0.683188 2.297043
v 3.344432 -0.674475 2.297835
v 2.793732 -0.549469 1.755403
v 3.344432 -0.549469 2.297835
v 3.344432 -0.617231 2.297835
v 2.793732 -0.617231 1.755403
v 2.788828 -0.561469 1.760382
v 2.788828 -0.605232 1.760382
v 2.786299 -0.567659 1.762950
v 2.786299 -0.599041 1.762950
v 2.775862 -0.578801 1.776397
v 2.775862 -0.587899 1.776397
v 2.805645 -0.561469 1.776946
v 2.805645 -0.605232 1.776946
v 2.803115 -0.567659 1.779514
v 2.803115 -0.599041 1.779514
v 2.713223 -0.703904 2.009089
v 2.650541 -0.492737 1.912649
v 3.196592 -0.502910 2.447928
v 3.192208 -0.683188 2.445172
v 3.196592 -0.674475 2.447928
v 3.196592 -0.549469 2.447928
v 3.196592 -0.617231 2.447928
v 3.091993 -0.703904 2.382173
v 3.189370 -0.492737 2.443388
v 2.645892 -0.502910 1.905497
v 2.648714 -0.683188 1.909839
v 2.645892 -0.674475 1.905497
v 2.645892 -0.549469 1.905497
v 2.645892 -0.617231 1.905497
v 2.651069 -0.561469 1.900241
v 2.651069 -0.605232 1.900241
v 2.653739 -0.567659 1.897530
v 2.653739 -0.599041 1.897530
v 2.667687 -0.578801 1.886221
v 2.667687 -0.587899 1.886221
v 2.667885 -0.561469 1.916805
v 2.667885 -0.605232 1.916805
v 2.670556 -0.567659 1.914094
v 2.670556 -0.599041 1.914094
v 2.577172 -0.587899 1.884421
v 2.729020 -0.587899 1.730258
v 2.620845 -0.587899 1.840082
v 2.729020 -0.587183 1.730258
v 2.620845 -0.587183 1.840082
v 2.556693 -0.703904 2.168004
v 2.427867 -0.492737 2.138718
v 2.969012 -0.502910 2.678977
v 2.967605 -0.683188 2.673198
v 2.969012 -0.674475 2.678977
v 2.935463 -0.703904 2.541088
v 2.966695 -0.492737 2.669456
v 2.418312 -0.502910 2.136546
v 2.424112 -0.683188 2.137864
v 2.418312 -0.674475 2.136546
v 2.969012 -0.549469 2.678977
v 2.412007 -0.557652 2.142947
v 2.412007 -0.609049 2.142947
v 2.969012 -0.617231 2.678977
v 2.527784 -0.703904 2.197354
v 2.386741 -0.492737 2.180470
v 2.926980 -0.502910 2.721650
v 2.926124 -0.683188 2.715312
v 2.926980 -0.674475 2.721650
v 2.926980 -0.549469 2.721650
v 2.926980 -0.617231 2.721650
v 2.906554 -0.703904 2.570438
v 2.925570 -0.492737 2.711209
v 2.376280 -0.502910 2.179218
v 2.382631 -0.683188 2.179978
v 2.376280 -0.674475 2.179218
v 2.382586 -0.557652 2.172817
v 2.382586 -0.609049 2.172817
v 2.376280 -0.549469 2.179218
v 2.418312 -0.549469 2.136546
v 2.376280 -0.617231 2.179218
v 2.418312 -0.617231 2.136546
v 2.399174 -0.564316 2.178885
v 2.418325 -0.564316 2.159442
v 2.399174 -0.602384 2.178885
v 2.418325 -0.602384 2.159442
v 2.394039 -0.557652 2.184098
v 2.423460 -0.557652 2.154229
v 2.394039 -0.609049 2.184098
v 2.423460 -0.609049 2.154229
v 2.380154 -0.564316 2.160150
v 2.399305 -0.564316 2.140707
v 2.374128 -0.602384 2.154215
v 2.393279 -0.602384 2.134772
v 2.857421 -0.583350 1.690744
v 2.865689 -0.583350 2.783875
v 2.586205 -0.583350 1.966093
v 3.136905 -0.583350 2.508525
v 3.408121 -0.583350 2.233175
v 2.314990 -0.583350 2.241443
v 2.848175 -0.583350 1.700131
v 2.595452 -0.583350 1.956706
v 2.843405 -0.583350 1.704974
v 2.600222 -0.583350 1.951863
v 2.822463 -0.583350 1.729086
v 2.624014 -0.583350 1.930559
v 2.864991 -0.583350 1.716695
v 2.612268 -0.583350 1.973270
v 2.860221 -0.583350 1.721537
v 2.617038 -0.583350 1.968427
v 3.344432 -0.583350 2.297835
v 3.196592 -0.583350 2.447928
v 2.418312 -0.583350 2.136546
v 2.969012 -0.583350 2.678977
v 2.926980 -0.583350 2.721650
v 2.376280 -0.583350 2.179218
v 2.412007 -0.583350 2.142947
v 2.382586 -0.583350 2.172817
v 2.423460 -0.583350 2.154229
v 2.394039 -0.583350 2.184098
v 2.418325 -0.583350 2.159442
v 2.399174 -0.583350 2.178885
v 2.398511 -0.583350 2.139925
v 2.379360 -0.583350 2.159368
v 2.822463 -0.583350 1.729086
v 2.822463 -0.578801 1.729086
v 2.624014 -0.583350 1.930559
v 2.624014 -0.578801 1.930559
v 2.775862 -0.578801 1.776397
v 2.775862 -0.587899 1.776397
v 2.822463 -0.587899 1.729086
v 2.667687 -0.578801 1.886221
v 2.667687 -0.587899 1.886221
v 2.624014 -0.587899 1.930559
v 2.577172 -0.587899 1.884421
v 2.729020 -0.587899 1.730258
v 2.620845 -0.587899 1.840082
v 2.729020 -0.587183 1.730258
v 2.620845 -0.587183 1.840082
v 2.869733 -0.583350 1.775646
v 2.869733 -0.578801 1.775646
v 2.671284 -0.583350 1.977120
v 2.671284 -0.578801 1.977120
v 2.823132 -0.578801 1.822958
v 2.823132 -0.587899 1.822958
v 2.869733 -0.587899 1.775646
v 2.714957 -0.578801 1.932781
v 2.714957 -0.587899 1.932781
v 2.671284 -0.587899 1.977120
v 3.185149 -0.583350 2.086327
v 3.185149 -0.578801 2.086327
v 2.986700 -0.583350 2.287801
v 2.986700 -0.578801 2.287801
v 3.138548 -0.578801 2.133638
v 3.138548 -0.587899 2.133638
v 3.185149 -0.587899 2.086327
v 3.030373 -0.578801 2.243462
v 3.030373 -0.587899 2.243462
v 2.986700 -0.587899 2.287801
vt 0.882586 0.000000
vt 0.882586 1.000000
vt 1.000000 1.000000
vt 1.000000 0.000000
vt 0.882586 0.000000
vt 1.000000 0.000000
vt 1.000000 1.000000
vt 0.882586 1.000000
vt 1.000000 0.000000
vt 1.000000 1.000000
vt 0.000000 1.000000
vt 0.000000 0.000000
vt 0.000000 0.000000
vt 0.000000 1.000000
vt 0.112993 1.000000
vt 0.112993 1.000000
vt 0.882586 0.000000
vt 0.882586 0.000000
vt 1.000000 0.000000
vt 0.112993 1.000000
vt 0.000000 1.000000
vt 0.000000 0.000000
vt 1.000000 1.000000
vt 1.000000 1.000000
vt 1.000000 0.000000
vt 0.000000 1.000000
vt 0.000000 0.000000
vt 0.000000 0.000000
vt 0.000000 1.000000
vt 0.112993 1.000000
vt 0.112993 1.000000
vt 0.882586 0.000000
vt 1.000000 1.000000
vt 1.000000 0.000000
vt 0.000000 0.000000
vt 0.000000 1.000000
vt 0.112993 1.000000
vt 0.882586 0.000000
vt 0.190480 0.000000
vt 0.500000 0.000000
vt 0.500000 0.000000
vt 0.190480 0.000000
vt 0.610036 1.000000
vt 0.500000 1.000000
vt 0.500000 1.000000
vt 0.610036 1.000000
vt 0.190480 0.000000
vt 0.500000 0.000000
vt 0.610036 1.000000
vt 0.500000 1.000000
vt 0.610036 1.000000
vt 0.500000 1.000000
vt 0.500000 1.000000
vt 0.610036 1.000000
vt 0.190480 0.000000
vt 0.500000 0.000000
vt 0.500000 0.000000
vt 0.190480 0.000000
vt 0.500000 0.000000
vt 0.190480 0.000000
vt 0.500000 1.000000
vt 0.610036 1.000000
vt 0.190480 1.000000
vt 0.190480 1.000000
vt 0.190480 0.000000
vt 0.500000 0.000000
vt 1.000000 0.000000
vt 1.000000 1.000000
vt 0.000000 1.000000
vt 0.000000 0.000000
vt 0.112993 1.000000
vt 0.882586 0.000000
vt 1.000000 0.000000
vt 0.882586 0.000000
vt 0.000000 1.000000
vt 0.112993 1.000000
vt 0.000000 0.000000
vt 1.000000 1.000000
vt 0.500000 1.000000
vt 0.610036 1.000000
vt 0.500000 0.000000
vt 0.190480 0.000000
vt 0.982954 1.000000
vt 0.982954 1.000000
vt 0.517046 1.000000
vt 0.517046 1.000000
vt 0.500000 1.000000
vt 0.619579 1.000000
vt 0.517046 1.000000
vt 0.873546 1.000000
vt 0.982954 1.000000
vt 0.882586 1.000000
vt 0.525840 1.000000
vt 0.525840 1.000000
vt 0.525840 1.000000
vt 0.525840 1.000000
vt 0.982954 1.000000
vt 0.982954 1.000000
vt 0.868882 1.000000
vt 0.974160 1.000000
vt 0.974160 1.000000
vt 0.868882 1.000000
vt 0.873546 1.000000
vt 0.982954 1.000000
vt 0.873546 1.000000
vt 0.974160 1.000000
vt 0.974160 1.000000
vt 0.517046 1.000000
vt 0.517046 1.000000
vt 0.624503 1.000000
vt 0.525840 1.000000
vt 0.517046 1.000000
vt 0.619579 1.000000
vt 0.873546 1.000000
vt 0.619579 1.000000
vt 0.619579 1.000000
vt 0.624503 1.000000
vt 0.525840 1.000000
vt 0.974160 1.000000
vt 0.974160 1.000000
vt 0.868882 1.000000
vt 0.868882 1.000000
vt 0.624502 1.000000
vt 0.624502 1.000000
vt 0.882586 1.000000
vt 0.882586 1.000000
vt 0.610036 0.000000
vt 0.610036 0.000000
vt 0.610036 0.000000
vt 0.610036 0.000000
vt 0.882586 1.000000
vt 0.882586 1.000000
vt 0.610036 0.000000
vt 0.610036 0.000000
vt 0.610036 0.000000
vt 0.610036 0.000000
vt 0.974160 1.000000
vt 0.974160 1.000000
vt 0.974160 1.000000
vt 0.974160 1.000000
vt 0.868882 1.000000
vt 0.624503 1.000000
vt 0.624503 1.000000
vt 0.868882 1.000000
vt 0.525840 1.000000
vt 0.525840 1.000000
vt 0.525840 1.000000
vt 0.525840 1.000000
vt 0.624503 1.000000
vt 0.868882 1.000000
vt 0.868882 1.000000
vt 0.624503 1.000000
vt 0.974160 1.000000
vt 0.974160 1.000000
vt 0.000000 0.000000
vt 0.000000 0.000000
vt 0.000000 0.000000
vt 0.000000 0.000000
vt 0.112993 0.000000
vt 0.112993 0.000000
vt 0.190480 1.000000
vt 0.190480 1.000000
vt 0.190480 1.000000
vt 0.190480 1.000000
vt 0.112993 0.000000
vt 0.112993 0.000000
vt 0.112993 0.000000
vt 0.112993 0.000000
vt 0.112993 0.000000
vt 0.112993 0.000000
vt 0.190480 1.000000
vt 0.190480 1.000000
vt 0.124617 1.000000
vt 0.178856 1.000000
vt 0.178856 1.000000
vt 0.124617 1.000000
vt 0.124617 1.000000
vt 0.178856 1.000000
vt 0.178856 1.000000
vt 0.124617 1.000000
vt 0.124617 1.000000
vt 0.124617 1.000000
vt 0.178856 1.000000
vt 0.178856 1.000000
vt 0.169390 1.000000
vt 0.134084 1.000000
vt 0.134084 1.000000
vt 0.169390 1.000000
vt 0.169390 1.000000
vt 0.134084 1.000000
vt 0.525840 1.000000
vt 0.525840 1.000000
vt 0.624503 1.000000
vt 0.868882 1.000000
vt 0.624503 1.000000
vt 0.868882 1.000000
vt 0.974160 1.000000
vt 0.868882 1.000000
vt 0.525840 1.000000
vt 0.525840 1.000000
vt 0.624503 1.000000
vt 0.525840 1.000000
vt 0.974160 1.000000
vt 0.974160 1.000000
vt 0.974160 1.000000
vt 0.868882 1.000000
vt 0.525840 1.000000
vt 0.525840 1.000000
vt 0.624503 1.000000
vt 0.525840 1.000000
vt 0.974160 1.000000
vt 0.974160 1.000000
vt 0.169390 1.000000
vt 0.169390 1.000000
vt 0.134084 1.000000
vt 0.134084 1.000000
vt 0.169390 1.000000
vt 0.134084 1.000000
vn 0.0000 -1.0000 0.0000
vn 0.0000 1.0000 0.0000
vn 0.5429 0.6336 -0.5512
vn -0.5429 0.6336 0.5512
vn -0.5512 0.6336 -0.5429
vn 0.5512 0.6336 0.5429
vn 0.7124 0.0000 0.7017
vn -0.7124 0.0000 -0.7017
vn -0.7017 0.0000 0.7124
vn 0.7017 0.0000 -0.7124
vn 0.1238 -0.9843 -0.1257
vn -0.1238 -0.9843 0.1257
vn -0.1257 -0.9843 -0.1238
vn 0.1257 -0.9843 0.1238
vn 0.6069 -0.5020 -0.6161
vn -0.6069 -0.5020 0.6162
vn -0.6162 -0.5020 -0.6069
vn 0.6161 -0.5020 0.6069
vn -0.7124 0.0000 -0.7018
vn 0.6162 -0.5020 0.6069
vn 0.0000 0.0000 1.0000
vn -0.6161 -0.5020 -0.6069
vn -0.7112 0.0585 -0.7005
vn -0.6647 0.3599 -0.6547
vn -0.7012 -0.1768 -0.6907
vn -0.7550 0.0000 -0.6557
vn -0.7012 0.1767 -0.6907
vn -0.6671 0.0000 -0.7450
vn -0.7012 0.1768 -0.6907
vn -0.7012 -0.1767 -0.6907
usemtl Material
s off
f 63/1/1 68/2/1 4/3/1 2/4/1
f 64/5/2 7/6/2 8/7/2 69/8/2
f 10/9/3 9/10/3 8/7/3 7/6/3
f 12/11/4 11/12/4 6/13/4 5/14/4
f 139/15/5 12/11/5 5/14/5 131/16/5
f 70/17/6 10/9/6 7/6/6 64/5/6
f 74/18/7 33/19/7 10/9/7 70/17/7
f 144/20/8 34/21/8 12/11/8 139/15/8
f 34/21/9 32/22/9 11/12/9 12/11/9
f 33/19/10 44/23/10 9/10/10 10/9/10
f 2/4/11 4/3/11 15/24/11 13/25/11
f 3/26/12 1/27/12 16/28/12 14/29/12
f 130/30/13 3/26/13 14/29/13 140/31/13
f 63/1/14 2/4/14 13/25/14 71/32/14
f 13/25/15 15/24/15 17/33/15 19/34/15
f 14/29/16 16/28/16 18/35/16 20/36/16
f 140/31/17 14/29/17 20/36/17 141/37/17
f 71/32/18 13/25/18 19/34/18 72/38/18
f 119/39/18 28/40/18 30/41/18 120/42/18
f 97/43/17 27/44/17 29/45/17 98/46/17
f 121/47/14 21/48/14 28/40/14 119/39/14
f 87/49/13 22/50/13 27/44/13 97/43/13
f 99/51/8 46/52/8 26/53/8 96/54/8
f 126/55/7 36/56/7 25/57/7 118/58/7
f 118/58/6 25/57/6 23/59/6 122/60/6
f 96/54/5 26/53/5 24/61/5 88/62/5
f 122/60/2 23/59/2 24/61/2 117/63/2
f 121/47/1 116/64/1 22/50/1 21/48/1
f 179/65/7 163/66/7 36/56/7 126/55/7
f 164/67/10 160/68/10 44/23/10 33/19/10
f 165/69/9 161/70/9 32/22/9 34/21/9
f 181/71/8 165/69/8 34/21/8 144/20/8
f 176/72/7 164/67/7 33/19/7 74/18/7
f 72/38/7 19/34/7 37/73/7 75/74/7
f 141/37/8 20/36/8 38/75/8 146/76/8
f 20/36/9 18/35/9 40/77/9 38/75/9
f 19/34/10 17/33/10 43/78/10 37/73/10
f 98/46/8 29/45/8 45/79/8 100/80/8
f 120/42/7 30/41/7 42/81/7 129/82/7
f 166/83/8 48/84/8 44/23/8 160/68/8
f 167/85/19 49/86/19 45/79/19 162/87/19
f 101/88/8 50/89/8 46/52/8 99/51/8
f 78/90/8 47/91/8 43/78/8 76/92/8
f 169/93/9 41/94/9 61/95/9 175/96/9
f 166/83/9 47/91/9 55/97/9 172/98/9
f 80/99/1 39/100/1 59/101/1 86/102/1
f 77/103/1 48/84/1 56/104/1 83/105/1
f 174/106/8 60/107/8 56/104/8 172/98/8
f 175/96/8 61/95/8 57/108/8 173/109/8
f 109/110/8 62/111/8 58/112/8 107/113/8
f 86/102/8 59/101/8 55/97/8 84/114/8
f 102/115/2 49/86/2 57/108/2 108/116/2
f 167/85/10 50/89/10 58/112/10 173/109/10
f 103/117/2 35/118/2 62/111/2 109/110/2
f 168/119/10 31/120/10 60/107/10 174/106/10
f 31/120/2 79/121/2 85/122/2 60/107/2
f 47/91/2 78/90/2 84/114/2 55/97/2
f 110/123/8 86/102/8 84/114/8 108/116/8
f 60/107/8 85/122/8 83/105/8 56/104/8
f 101/88/1 77/103/1 83/105/1 107/113/1
f 104/124/1 80/99/1 86/102/1 110/123/1
f 102/115/8 78/90/8 76/92/8 100/80/8
f 48/84/8 77/103/8 73/125/8 44/23/8
f 17/33/8 67/126/8 76/92/8 43/78/8
f 91/127/7 72/38/7 75/74/7 93/128/7
f 177/129/7 176/72/7 74/18/7 92/130/7
f 9/10/5 65/131/5 69/8/5 8/7/5
f 44/23/8 73/125/8 65/131/8 9/10/8
f 4/3/13 68/2/13 66/132/13 15/24/13
f 15/24/17 66/132/17 67/126/17 17/33/17
f 90/133/20 71/32/20 72/38/20 91/127/20
f 94/134/14 63/1/14 71/32/14 90/133/14
f 92/130/7 74/18/7 70/17/7 89/135/7
f 89/135/6 70/17/6 64/5/6 95/136/6
f 95/136/2 64/5/2 69/8/2 88/62/2
f 94/134/1 87/49/1 68/2/1 63/1/1
f 21/48/1 22/50/1 87/49/1 94/134/1
f 23/59/2 95/136/2 88/62/2 24/61/2
f 25/57/6 89/135/6 95/136/6 23/59/6
f 36/56/7 92/130/7 89/135/7 25/57/7
f 21/48/14 94/134/14 90/133/14 28/40/14
f 28/40/20 90/133/20 91/127/20 30/41/20
f 163/66/7 177/129/7 92/130/7 36/56/7
f 30/41/7 91/127/7 93/128/7 42/81/7
f 49/86/8 102/115/8 100/80/8 45/79/8
f 41/94/1 104/124/1 110/123/1 61/95/1
f 50/89/1 101/88/1 107/113/1 58/112/1
f 61/95/8 110/123/8 108/116/8 57/108/8
f 79/121/2 103/117/2 109/110/2 85/122/2
f 78/90/2 102/115/2 108/116/2 84/114/2
f 85/122/8 109/110/8 107/113/8 83/105/8
f 77/103/8 101/88/8 99/51/8 73/125/8
f 67/126/8 98/46/8 100/80/8 76/92/8
f 65/131/5 96/54/5 88/62/5 69/8/5
f 73/125/8 99/51/8 96/54/8 65/131/8
f 68/2/13 87/49/13 97/43/13 66/132/13
f 66/132/17 97/43/17 98/46/17 67/126/17
f 52/137/21 170/138/21 190/139/21 191/140/21
f 82/141/21 106/142/21 198/143/21 195/144/21
f 53/145/21 171/146/21 192/147/21 199/148/21
f 105/149/21 81/150/21 194/151/21 197/152/21
f 170/138/21 51/153/21 196/154/21 190/139/21
f 112/155/21 114/156/21 203/157/21 201/158/21
f 134/159/7 120/42/7 129/82/7 136/160/7
f 29/45/8 125/161/8 147/162/8 45/79/8
f 162/87/8 178/163/8 145/164/8 46/52/8
f 180/165/7 179/65/7 126/55/7 135/166/7
f 137/167/1 130/30/1 116/64/1 121/47/1
f 138/168/2 122/60/2 117/63/2 131/16/2
f 132/169/6 118/58/6 122/60/6 138/168/6
f 135/166/7 126/55/7 118/58/7 132/169/7
f 137/167/14 121/47/14 119/39/14 133/170/14
f 133/170/20 119/39/20 120/42/20 134/159/20
f 27/44/22 124/171/22 125/161/22 29/45/22
f 22/50/13 116/64/13 124/171/13 27/44/13
f 46/52/8 145/164/8 123/172/8 26/53/8
f 26/53/5 123/172/5 117/63/5 24/61/5
f 16/28/18 133/170/18 134/159/18 18/35/18
f 1/27/14 137/167/14 133/170/14 16/28/14
f 32/22/7 135/166/7 132/169/7 11/12/7
f 11/12/6 132/169/6 138/168/6 6/13/6
f 6/13/2 138/168/2 131/16/2 5/14/2
f 1/27/1 3/26/1 130/30/1 137/167/1
f 161/70/7 180/165/7 135/166/7 32/22/7
f 18/35/7 134/159/7 136/160/7 40/77/7
f 125/161/8 141/37/8 146/76/8 147/162/8
f 142/173/1 127/174/1 153/175/1 152/176/1
f 124/171/17 140/31/17 141/37/17 125/161/17
f 116/64/13 130/30/13 140/31/13 124/171/13
f 145/164/8 144/20/8 139/15/8 123/172/8
f 123/172/5 139/15/5 131/16/5 117/63/5
f 127/174/8 142/173/8 144/20/8 145/164/8
f 143/177/8 128/178/8 147/162/8 146/76/8
f 182/179/8 127/174/8 145/164/8 178/163/8
f 183/180/8 143/177/8 146/76/8 181/71/8
f 183/180/10 142/173/10 152/176/10 185/181/10
f 128/178/2 143/177/2 154/182/2 155/183/2
f 182/179/9 128/178/9 155/183/9 184/184/9
f 149/185/8 148/186/8 152/176/8 153/175/8
f 150/187/8 151/188/8 155/183/8 154/182/8
f 186/189/19 149/185/19 153/175/19 184/184/19
f 187/190/8 150/187/8 154/182/8 185/181/8
f 148/186/8 187/190/8 185/181/8 152/176/8
f 151/188/19 186/189/19 184/184/19 155/183/19
f 127/174/9 182/179/9 184/184/9 153/175/9
f 143/177/10 183/180/10 185/181/10 154/182/10
f 142/173/8 183/180/8 181/71/8 144/20/8
f 128/178/8 182/179/8 178/163/8 147/162/8
f 40/77/7 136/160/7 180/165/7 161/70/7
f 136/160/7 129/82/7 179/65/7 180/165/7
f 45/79/8 147/162/8 178/163/8 162/87/8
f 51/153/21 82/141/21 195/144/21 196/154/21
f 42/81/7 93/128/7 177/129/7 163/66/7
f 93/128/7 75/74/7 176/72/7 177/129/7
f 39/100/10 168/119/10 174/106/10 59/101/10
f 49/86/10 167/85/10 173/109/10 57/108/10
f 62/111/8 175/96/8 173/109/8 58/112/8
f 59/101/8 174/106/8 172/98/8 55/97/8
f 106/142/21 53/145/21 199/148/21 198/143/21
f 81/150/21 52/137/21 191/140/21 194/151/21
f 48/84/9 166/83/9 172/98/9 56/104/9
f 35/118/9 169/93/9 175/96/9 62/111/9
f 50/89/19 167/85/19 162/87/19 46/52/19
f 47/91/8 166/83/8 160/68/8 43/78/8
f 75/74/7 37/73/7 164/67/7 176/72/7
f 146/76/8 38/75/8 165/69/8 181/71/8
f 38/75/9 40/77/9 161/70/9 165/69/9
f 37/73/10 43/78/10 160/68/10 164/67/10
f 129/82/7 42/81/7 163/66/7 179/65/7
f 171/146/21 54/191/21 193/192/21 192/147/21
f 54/191/21 105/149/21 197/152/21 193/192/21
f 195/144/2 198/143/2 213/193/2 210/194/2
f 210/194/2 213/193/2 223/195/2 220/196/2
f 194/151/1 191/140/1 206/197/1 209/198/1
f 199/148/10 192/147/10 207/199/10 214/200/10
f 193/192/1 197/152/1 212/201/1 208/202/1
f 196/154/2 195/144/2 210/194/2 211/203/2
f 191/140/9 190/139/9 205/204/9 206/197/9
f 198/143/2 199/148/2 214/200/2 213/193/2
f 197/152/1 194/151/1 209/198/1 212/201/1
f 192/147/10 193/192/10 208/202/10 207/199/10
f 190/139/9 196/154/9 211/203/9 205/204/9
f 209/198/1 206/197/1 216/205/1 219/206/1
f 214/200/10 207/199/10 217/207/10 224/208/10
f 208/202/1 212/201/1 222/209/1 218/210/1
f 211/203/2 210/194/2 220/196/2 221/211/2
f 206/197/9 205/204/9 215/212/9 216/205/9
f 213/193/2 214/200/2 224/208/2 223/195/2
f 212/201/1 209/198/1 219/206/1 222/209/1
f 207/199/10 208/202/10 218/210/10 217/207/10
f 205/204/9 211/203/9 221/211/9 215/212/9
usemtl Material.019
f 186/189/10 151/188/10 159/213/10 188/214/10
f 188/214/23 189/215/23 156/216/23 157/217/23
f 148/186/2 149/185/2 157/217/2 156/216/2
f 187/190/9 148/186/9 156/216/9 189/215/9
f 151/188/1 150/187/1 158/218/1 159/213/1
f 150/187/9 187/190/9 189/215/9 158/218/9
f 159/213/24 158/218/24 189/215/24 188/214/24
f 149/185/10 186/189/10 188/214/10 157/217/10
usemtl Material.015
f 79/121/25 31/120/25 52/137/25 81/150/25
f 168/119/26 39/100/26 51/153/26 170/138/26
f 104/124/27 41/94/27 53/145/27 106/142/27
f 169/93/28 35/118/28 54/191/28 171/146/28
f 39/100/29 80/99/29 82/141/29 51/153/29
f 103/117/30 79/121/30 81/150/30 105/149/30
f 35/118/30 103/117/30 105/149/30 54/191/30
f 80/99/27 104/124/27 106/142/27 82/141/27
f 41/94/28 169/93/28 171/146/28 53/145/28
f 31/120/26 168/119/26 170/138/26 52/137/26
f 216/205/8 215/212/8 221/211/8 220/196/8 223/195/8 224/208/8 217/207/8 218/210/8 222/209/8 219/206/8
l 113 202
l 204 115
l 111 200
