# Blender v2.82 (sub 7) OBJ File: 'lowpoly_gamerroom_color.blend'
# www.blender.org
mtllib Computer2.mtl
o Plane.044_Plane.019
v 1.248549 -0.703904 2.921656
v 1.780163 -0.703904 2.928292
v 1.255185 -0.703904 2.390041
v 1.786800 -0.703904 2.396677
v 1.144264 -0.492737 2.276316
v 1.134823 -0.492737 3.032577
v 1.891084 -0.492737 3.042017
v 1.900525 -0.492737 2.285757
v 1.908960 -0.502910 2.277530
v 1.899311 -0.502910 3.050452
v 1.126388 -0.502910 3.040803
v 1.136037 -0.502910 2.267881
v 1.894317 -0.683188 3.045332
v 1.141032 -0.683188 2.273001
v 1.903840 -0.683188 2.282524
v 1.131509 -0.683188 3.035809
v 1.908960 -0.674475 2.277530
v 1.126388 -0.674475 3.040803
v 1.899311 -0.674475 3.050452
v 1.136037 -0.674475 2.267881
v 1.514356 -0.703904 2.924974
v 1.520993 -0.703904 2.393359
v 1.512954 -0.492737 3.037297
v 1.522395 -0.492737 2.281036
v 1.512850 -0.502910 3.045628
v 1.522499 -0.502910 2.272705
v 1.522436 -0.683188 2.277762
v 1.512913 -0.683188 3.040571
v 1.522499 -0.674475 2.272705
v 1.512850 -0.674475 3.045628
v 1.888988 -0.567659 2.277281
v 1.126388 -0.549469 3.040803
v 1.899311 -0.549469 3.050452
v 1.136037 -0.549469 2.267881
v 1.542471 -0.567659 2.272955
v 1.512850 -0.549469 3.045628
v 1.899311 -0.617231 3.050452
v 1.136037 -0.617231 2.267881
v 1.888988 -0.599041 2.277281
v 1.126388 -0.617231 3.040803
v 1.542471 -0.599041 2.272955
v 1.512850 -0.617231 3.045628
v 1.908960 -0.617231 2.277530
v 1.908960 -0.549469 2.277530
v 1.522499 -0.617231 2.272705
v 1.522499 -0.549469 2.272705
v 1.895784 -0.605232 2.277365
v 1.895784 -0.561469 2.277365
v 1.535674 -0.605232 2.272870
v 1.535674 -0.561469 2.272870
v 1.857091 -0.587899 2.278883
v 1.857091 -0.578801 2.278883
v 1.574317 -0.587899 2.275353
v 1.574317 -0.578801 2.275353
v 1.895490 -0.605232 2.300968
v 1.895490 -0.561469 2.300968
v 1.535380 -0.605232 2.296472
v 1.535380 -0.561469 2.296472
v 1.888693 -0.599041 2.300883
v 1.888693 -0.567659 2.300883
v 1.542176 -0.599041 2.296557
v 1.542176 -0.567659 2.296557
v 1.717744 -0.703904 2.927513
v 1.802289 -0.492737 3.040909
v 1.818208 -0.502910 2.276397
v 1.814276 -0.683188 2.281406
v 1.818208 -0.674475 2.276397
v 1.724381 -0.703904 2.395898
v 1.811730 -0.492737 2.284648
v 1.808559 -0.502910 3.049319
v 1.804753 -0.683188 3.044214
v 1.808559 -0.674475 3.049319
v 1.818208 -0.549469 2.276397
v 1.808559 -0.549469 3.049319
v 1.808559 -0.617231 3.049319
v 1.818208 -0.617231 2.276397
v 1.811221 -0.561469 2.276310
v 1.811221 -0.605232 2.276310
v 1.807616 -0.567659 2.276265
v 1.807616 -0.599041 2.276265
v 1.790688 -0.578801 2.278054
v 1.790688 -0.587899 2.278054
v 1.810926 -0.561469 2.299912
v 1.810926 -0.605232 2.299912
v 1.807321 -0.567659 2.299867
v 1.807321 -0.599041 2.299867
v 1.579489 -0.703904 2.394090
v 1.605611 -0.492737 2.282075
v 1.597899 -0.502910 3.046690
v 1.596849 -0.683188 3.041619
v 1.597899 -0.674475 3.046690
v 1.597899 -0.549469 3.046690
v 1.597899 -0.617231 3.046690
v 1.572853 -0.703904 2.925704
v 1.596170 -0.492737 3.038336
v 1.607548 -0.502910 2.273767
v 1.606372 -0.683188 2.278810
v 1.607548 -0.674475 2.273767
v 1.607548 -0.549469 2.273767
v 1.607548 -0.617231 2.273767
v 1.614924 -0.561469 2.273859
v 1.614924 -0.605232 2.273859
v 1.618730 -0.567659 2.273907
v 1.618730 -0.599041 2.273907
v 1.636548 -0.578801 2.276130
v 1.636548 -0.587899 2.276130
v 1.614630 -0.561469 2.297462
v 1.614630 -0.605232 2.297462
v 1.618435 -0.567659 2.297509
v 1.618435 -0.599041 2.297509
v 1.857912 -0.578801 2.213139
v 1.575138 -0.578801 2.209609
v 1.857912 -0.587899 2.213139
v 1.575138 -0.587899 2.209609
v 1.791509 -0.587899 2.212310
v 1.791509 -0.578801 2.212310
v 1.637369 -0.578801 2.210386
v 1.637369 -0.587899 2.210386
v 1.791509 -0.587183 2.212310
v 1.637369 -0.587183 2.210386
v 1.356447 -0.703904 2.391305
v 1.288317 -0.492737 2.278114
v 1.273615 -0.502910 3.042641
v 1.276809 -0.683188 3.037623
v 1.273615 -0.674475 3.042641
v 1.349811 -0.703904 2.922920
v 1.278876 -0.492737 3.034375
v 1.283264 -0.502910 2.269719
v 1.286331 -0.683188 2.274815
v 1.283264 -0.674475 2.269719
v 1.273615 -0.549469 3.042641
v 1.274280 -0.557652 2.269607
v 1.274280 -0.609049 2.269607
v 1.273615 -0.617231 3.042641
v 1.315254 -0.703904 2.390791
v 1.229716 -0.492737 2.277382
v 1.213723 -0.502910 3.041893
v 1.217701 -0.683188 3.036885
v 1.213723 -0.674475 3.041893
v 1.213723 -0.549469 3.041893
v 1.213723 -0.617231 3.041893
v 1.308617 -0.703904 2.922405
v 1.220275 -0.492737 3.033643
v 1.223372 -0.502910 2.268971
v 1.227223 -0.683188 2.274077
v 1.223372 -0.674475 2.268971
v 1.232357 -0.557652 2.269083
v 1.232357 -0.609049 2.269083
v 1.223372 -0.549469 2.268971
v 1.283264 -0.549469 2.269719
v 1.223372 -0.617231 2.268971
v 1.283264 -0.617231 2.269719
v 1.239473 -0.564316 2.285250
v 1.266762 -0.564316 2.285591
v 1.239473 -0.602384 2.285250
v 1.266762 -0.602384 2.285591
v 1.232156 -0.557652 2.285159
v 1.274079 -0.557652 2.285682
v 1.232156 -0.609049 2.285159
v 1.274079 -0.609049 2.285682
v 1.239806 -0.564316 2.258554
v 1.267095 -0.564316 2.258895
v 1.239912 -0.602384 2.250097
v 1.267201 -0.602384 2.250437
v 1.908960 -0.583350 2.277530
v 1.126388 -0.583350 3.040803
v 1.522499 -0.583350 2.272705
v 1.512850 -0.583350 3.045628
v 1.899311 -0.583350 3.050452
v 1.136037 -0.583350 2.267881
v 1.895784 -0.583350 2.277365
v 1.535674 -0.583350 2.272870
v 1.888988 -0.583350 2.277281
v 1.542471 -0.583350 2.272955
v 1.857091 -0.583350 2.278883
v 1.574317 -0.583350 2.275353
v 1.895490 -0.583350 2.300968
v 1.535380 -0.583350 2.296472
v 1.888693 -0.583350 2.300883
v 1.542176 -0.583350 2.296557
v 1.808559 -0.583350 3.049319
v 1.597899 -0.583350 3.046690
v 1.575138 -0.583350 2.209609
v 1.857912 -0.583350 2.213139
v 1.283264 -0.583350 2.269719
v 1.273615 -0.583350 3.042641
v 1.213723 -0.583350 3.041893
v 1.223372 -0.583350 2.268971
v 1.274280 -0.583350 2.269607
v 1.232357 -0.583350 2.269083
v 1.274079 -0.583350 2.285682
v 1.232156 -0.583350 2.285159
v 1.266762 -0.583350 2.285591
v 1.239473 -0.583350 2.285250
v 1.267109 -0.583350 2.257780
v 1.239820 -0.583350 2.257440
v 1.638429 -0.578801 2.125428
v 1.576199 -0.578801 2.124651
v 1.792570 -0.578801 2.127352
v 1.792570 -0.587899 2.127352
v 1.858973 -0.587899 2.128181
v 1.576199 -0.583350 2.124651
v 1.576199 -0.587899 2.124651
v 1.858973 -0.583350 2.128181
v 1.858973 -0.578801 2.128181
v 1.792570 -0.587183 2.127352
v 1.638429 -0.587183 2.125428
v 1.791509 -0.584651 2.212310
v 1.637369 -0.584651 2.210386
v 1.792570 -0.584651 2.127352
v 1.638429 -0.584651 2.125428
vt 0.882586 0.000000
vt 0.882586 1.000000
vt 1.000000 1.000000
vt 1.000000 0.000000
vt 0.882586 0.000000
vt 1.000000 0.000000
vt 1.000000 1.000000
vt 0.882586 1.000000
vt 1.000000 0.000000
vt 1.000000 1.000000
vt 0.000000 1.000000
vt 0.000000 0.000000
vt 0.000000 0.000000
vt 0.000000 1.000000
vt 0.112993 1.000000
vt 0.112993 1.000000
vt 0.882586 0.000000
vt 0.882586 0.000000
vt 1.000000 0.000000
vt 0.112993 1.000000
vt 0.000000 1.000000
vt 0.000000 0.000000
vt 1.000000 1.000000
vt 1.000000 1.000000
vt 1.000000 0.000000
vt 0.000000 1.000000
vt 0.000000 0.000000
vt 0.000000 0.000000
vt 0.000000 1.000000
vt 0.112993 1.000000
vt 0.112993 1.000000
vt 0.882586 0.000000
vt 1.000000 1.000000
vt 1.000000 0.000000
vt 0.000000 0.000000
vt 0.000000 1.000000
vt 0.112993 1.000000
vt 0.882586 0.000000
vt 0.190480 0.000000
vt 0.500000 0.000000
vt 0.500000 0.000000
vt 0.190480 0.000000
vt 0.610036 1.000000
vt 0.500000 1.000000
vt 0.500000 1.000000
vt 0.610036 1.000000
vt 0.190480 0.000000
vt 0.500000 0.000000
vt 0.610036 1.000000
vt 0.500000 1.000000
vt 0.610036 1.000000
vt 0.500000 1.000000
vt 0.500000 1.000000
vt 0.610036 1.000000
vt 0.190480 0.000000
vt 0.500000 0.000000
vt 0.500000 0.000000
vt 0.190480 0.000000
vt 0.500000 0.000000
vt 0.190480 0.000000
vt 0.500000 1.000000
vt 0.610036 1.000000
vt 0.190480 1.000000
vt 0.190480 1.000000
vt 0.190480 0.000000
vt 0.500000 0.000000
vt 1.000000 0.000000
vt 1.000000 1.000000
vt 0.000000 1.000000
vt 0.000000 0.000000
vt 0.112993 1.000000
vt 0.882586 0.000000
vt 1.000000 0.000000
vt 0.882586 0.000000
vt 0.000000 1.000000
vt 0.112993 1.000000
vt 0.000000 0.000000
vt 1.000000 1.000000
vt 0.500000 1.000000
vt 0.610036 1.000000
vt 0.500000 0.000000
vt 0.190480 0.000000
vt 0.982954 1.000000
vt 0.982954 1.000000
vt 0.517046 1.000000
vt 0.517046 1.000000
vt 0.500000 1.000000
vt 0.619579 1.000000
vt 0.517046 1.000000
vt 0.873546 1.000000
vt 0.982954 1.000000
vt 0.882586 1.000000
vt 0.525840 1.000000
vt 0.525840 1.000000
vt 0.525840 1.000000
vt 0.525840 1.000000
vt 0.982954 1.000000
vt 0.982954 1.000000
vt 0.868882 1.000000
vt 0.974160 1.000000
vt 0.974160 1.000000
vt 0.868882 1.000000
vt 0.873546 1.000000
vt 0.982954 1.000000
vt 0.873546 1.000000
vt 0.974160 1.000000
vt 0.974160 1.000000
vt 0.517046 1.000000
vt 0.517046 1.000000
vt 0.624503 1.000000
vt 0.525840 1.000000
vt 0.517046 1.000000
vt 0.619579 1.000000
vt 0.873546 1.000000
vt 0.619579 1.000000
vt 0.619579 1.000000
vt 0.624503 1.000000
vt 0.525840 1.000000
vt 0.974160 1.000000
vt 0.974160 1.000000
vt 0.868882 1.000000
vt 0.868882 1.000000
vt 0.624502 1.000000
vt 0.624502 1.000000
vt 0.882586 1.000000
vt 0.882586 1.000000
vt 0.610036 0.000000
vt 0.610036 0.000000
vt 0.610036 0.000000
vt 0.610036 0.000000
vt 0.882586 1.000000
vt 0.882586 1.000000
vt 0.610036 0.000000
vt 0.610036 0.000000
vt 0.610036 0.000000
vt 0.610036 0.000000
vt 0.112993 0.000000
vt 0.112993 0.000000
vt 0.190480 1.000000
vt 0.190480 1.000000
vt 0.190480 1.000000
vt 0.190480 1.000000
vt 0.112993 0.000000
vt 0.112993 0.000000
vt 0.112993 0.000000
vt 0.112993 0.000000
vt 0.112993 0.000000
vt 0.112993 0.000000
vt 0.190480 1.000000
vt 0.190480 1.000000
vt 0.124617 1.000000
vt 0.178856 1.000000
vt 0.178856 1.000000
vt 0.124617 1.000000
vt 0.124617 1.000000
vt 0.178856 1.000000
vt 0.178856 1.000000
vt 0.124617 1.000000
vt 0.124617 1.000000
vt 0.124617 1.000000
vt 0.178856 1.000000
vt 0.178856 1.000000
vt 0.169390 1.000000
vt 0.134084 1.000000
vt 0.134084 1.000000
vt 0.169390 1.000000
vt 0.169390 1.000000
vt 0.134084 1.000000
vt 0.624503 1.000000
vt 0.868882 1.000000
vt 0.868882 1.000000
vt 0.624503 1.000000
vt 0.000000 0.000000
vt 0.000000 0.000000
vt 0.000000 0.000000
vt 0.000000 0.000000
vt 0.000000 0.000000
vt 0.000000 0.000000
vt 0.624503 1.000000
vt 0.868882 1.000000
vt 0.169390 1.000000
vt 0.169390 1.000000
vt 0.134084 1.000000
vt 0.134084 1.000000
vt 0.169390 1.000000
vt 0.134084 1.000000
vt 0.868882 1.000000
vt 0.624503 1.000000
vt 0.624503 1.000000
vt 0.868882 1.000000
vt 0.525840 1.000000
vt 0.624503 1.000000
vt 0.624503 1.000000
vt 0.525840 1.000000
vt 0.868882 1.000000
vt 0.868882 1.000000
vt 0.974160 1.000000
vt 0.974160 1.000000
vt 0.525840 1.000000
vt 0.525840 1.000000
vt 0.525840 1.000000
vt 0.525840 1.000000
vt 0.974160 1.000000
vt 0.974160 1.000000
vt 0.974160 1.000000
vt 0.974160 1.000000
vt 0.525840 1.000000
vt 0.525840 1.000000
vt 0.974160 1.000000
vt 0.868882 1.000000
vt 0.974160 1.000000
vt 0.525840 1.000000
vt 0.974160 1.000000
vt 0.000000 0.000000
vt 0.000000 0.000000
vt 0.868882 1.000000
vt 0.624503 1.000000
vn 0.0000 -1.0000 -0.0000
vn 0.0000 1.0000 0.0000
vn 0.7736 0.6336 0.0097
vn -0.7736 0.6336 -0.0097
vn 0.0097 0.6336 -0.7736
vn -0.0097 0.6336 0.7736
vn -0.0125 0.0000 0.9999
vn 0.0125 0.0000 -0.9999
vn -0.9999 0.0000 -0.0125
vn 0.9999 0.0000 0.0125
vn 0.1764 -0.9843 0.0022
vn -0.1764 -0.9843 -0.0022
vn 0.0022 -0.9843 -0.1764
vn -0.0022 -0.9843 0.1764
vn 0.8648 -0.5020 0.0108
vn -0.8648 -0.5020 -0.0108
vn 0.0108 -0.5020 -0.8648
vn -0.0108 -0.5020 0.8648
vn 0.0124 0.0585 -0.9982
vn 0.0116 0.3599 -0.9329
vn 0.0115 -0.9999 0.0001
vn 0.0123 -0.1768 -0.9842
vn -0.0502 0.0000 -0.9987
vn 0.0123 0.1768 -0.9842
vn 0.0751 0.0000 -0.9972
usemtl Material
s off
f 63/1/1 68/2/1 4/3/1 2/4/1
f 64/5/2 7/6/2 8/7/2 69/8/2
f 10/9/3 9/10/3 8/7/3 7/6/3
f 12/11/4 11/12/4 6/13/4 5/14/4
f 144/15/5 12/11/5 5/14/5 136/16/5
f 70/17/6 10/9/6 7/6/6 64/5/6
f 74/18/7 33/19/7 10/9/7 70/17/7
f 149/20/8 34/21/8 12/11/8 144/15/8
f 34/21/9 32/22/9 11/12/9 12/11/9
f 33/19/10 44/23/10 9/10/10 10/9/10
f 2/4/11 4/3/11 15/24/11 13/25/11
f 3/26/12 1/27/12 16/28/12 14/29/12
f 135/30/13 3/26/13 14/29/13 145/31/13
f 63/1/14 2/4/14 13/25/14 71/32/14
f 13/25/15 15/24/15 17/33/15 19/34/15
f 14/29/16 16/28/16 18/35/16 20/36/16
f 145/31/17 14/29/17 20/36/17 146/37/17
f 71/32/18 13/25/18 19/34/18 72/38/18
f 124/39/18 28/40/18 30/41/18 125/42/18
f 97/43/17 27/44/17 29/45/17 98/46/17
f 126/47/14 21/48/14 28/40/14 124/39/14
f 87/49/13 22/50/13 27/44/13 97/43/13
f 99/51/8 46/52/8 26/53/8 96/54/8
f 131/55/7 36/56/7 25/57/7 123/58/7
f 123/58/6 25/57/6 23/59/6 127/60/6
f 96/54/5 26/53/5 24/61/5 88/62/5
f 127/60/2 23/59/2 24/61/2 122/63/2
f 126/47/1 121/64/1 22/50/1 21/48/1
f 186/65/7 168/66/7 36/56/7 131/55/7
f 169/67/10 165/68/10 44/23/10 33/19/10
f 170/69/9 166/70/9 32/22/9 34/21/9
f 188/71/8 170/69/8 34/21/8 149/20/8
f 181/72/7 169/67/7 33/19/7 74/18/7
f 72/38/7 19/34/7 37/73/7 75/74/7
f 146/37/8 20/36/8 38/75/8 151/76/8
f 20/36/9 18/35/9 40/77/9 38/75/9
f 19/34/10 17/33/10 43/78/10 37/73/10
f 98/46/8 29/45/8 45/79/8 100/80/8
f 125/42/7 30/41/7 42/81/7 134/82/7
f 171/83/8 48/84/8 44/23/8 165/68/8
f 172/85/8 49/86/8 45/79/8 167/87/8
f 101/88/8 50/89/8 46/52/8 99/51/8
f 78/90/8 47/91/8 43/78/8 76/92/8
f 174/93/9 41/94/9 61/95/9 180/96/9
f 171/83/9 47/91/9 55/97/9 177/98/9
f 80/99/1 39/100/1 59/101/1 86/102/1
f 77/103/1 48/84/1 56/104/1 83/105/1
f 179/106/8 60/107/8 56/104/8 177/98/8
f 180/96/8 61/95/8 57/108/8 178/109/8
f 109/110/8 62/111/8 58/112/8 107/113/8
f 86/102/8 59/101/8 55/97/8 84/114/8
f 102/115/2 49/86/2 57/108/2 108/116/2
f 172/85/10 50/89/10 58/112/10 178/109/10
f 103/117/2 35/118/2 62/111/2 109/110/2
f 173/119/10 31/120/10 60/107/10 179/106/10
f 31/120/2 79/121/2 85/122/2 60/107/2
f 47/91/2 78/90/2 84/114/2 55/97/2
f 110/123/8 86/102/8 84/114/8 108/116/8
f 60/107/8 85/122/8 83/105/8 56/104/8
f 101/88/1 77/103/1 83/105/1 107/113/1
f 104/124/1 80/99/1 86/102/1 110/123/1
f 102/115/8 78/90/8 76/92/8 100/80/8
f 48/84/8 77/103/8 73/125/8 44/23/8
f 17/33/8 67/126/8 76/92/8 43/78/8
f 91/127/7 72/38/7 75/74/7 93/128/7
f 182/129/7 181/72/7 74/18/7 92/130/7
f 9/10/5 65/131/5 69/8/5 8/7/5
f 44/23/8 73/125/8 65/131/8 9/10/8
f 4/3/13 68/2/13 66/132/13 15/24/13
f 15/24/17 66/132/17 67/126/17 17/33/17
f 90/133/18 71/32/18 72/38/18 91/127/18
f 94/134/14 63/1/14 71/32/14 90/133/14
f 92/130/7 74/18/7 70/17/7 89/135/7
f 89/135/6 70/17/6 64/5/6 95/136/6
f 95/136/2 64/5/2 69/8/2 88/62/2
f 94/134/1 87/49/1 68/2/1 63/1/1
f 21/48/1 22/50/1 87/49/1 94/134/1
f 23/59/2 95/136/2 88/62/2 24/61/2
f 25/57/6 89/135/6 95/136/6 23/59/6
f 36/56/7 92/130/7 89/135/7 25/57/7
f 21/48/14 94/134/14 90/133/14 28/40/14
f 28/40/18 90/133/18 91/127/18 30/41/18
f 168/66/7 182/129/7 92/130/7 36/56/7
f 30/41/7 91/127/7 93/128/7 42/81/7
f 49/86/8 102/115/8 100/80/8 45/79/8
f 41/94/1 104/124/1 110/123/1 61/95/1
f 50/89/1 101/88/1 107/113/1 58/112/1
f 61/95/8 110/123/8 108/116/8 57/108/8
f 79/121/2 103/117/2 109/110/2 85/122/2
f 78/90/2 102/115/2 108/116/2 84/114/2
f 85/122/8 109/110/8 107/113/8 83/105/8
f 77/103/8 101/88/8 99/51/8 73/125/8
f 67/126/8 98/46/8 100/80/8 76/92/8
f 65/131/5 96/54/5 88/62/5 69/8/5
f 73/125/8 99/51/8 96/54/8 65/131/8
f 68/2/13 87/49/13 97/43/13 66/132/13
f 66/132/17 97/43/17 98/46/17 67/126/17
f 139/137/7 125/42/7 134/82/7 141/138/7
f 29/45/8 130/139/8 152/140/8 45/79/8
f 167/87/8 185/141/8 150/142/8 46/52/8
f 187/143/7 186/65/7 131/55/7 140/144/7
f 142/145/1 135/30/1 121/64/1 126/47/1
f 143/146/2 127/60/2 122/63/2 136/16/2
f 137/147/6 123/58/6 127/60/6 143/146/6
f 140/144/7 131/55/7 123/58/7 137/147/7
f 142/145/14 126/47/14 124/39/14 138/148/14
f 138/148/18 124/39/18 125/42/18 139/137/18
f 27/44/17 129/149/17 130/139/17 29/45/17
f 22/50/13 121/64/13 129/149/13 27/44/13
f 46/52/8 150/142/8 128/150/8 26/53/8
f 26/53/5 128/150/5 122/63/5 24/61/5
f 16/28/18 138/148/18 139/137/18 18/35/18
f 1/27/14 142/145/14 138/148/14 16/28/14
f 32/22/7 140/144/7 137/147/7 11/12/7
f 11/12/6 137/147/6 143/146/6 6/13/6
f 6/13/2 143/146/2 136/16/2 5/14/2
f 1/27/1 3/26/1 135/30/1 142/145/1
f 166/70/7 187/143/7 140/144/7 32/22/7
f 18/35/7 139/137/7 141/138/7 40/77/7
f 130/139/8 146/37/8 151/76/8 152/140/8
f 147/151/1 132/152/1 158/153/1 157/154/1
f 129/149/17 145/31/17 146/37/17 130/139/17
f 121/64/13 135/30/13 145/31/13 129/149/13
f 150/142/8 149/20/8 144/15/8 128/150/8
f 128/150/5 144/15/5 136/16/5 122/63/5
f 132/152/8 147/151/8 149/20/8 150/142/8
f 148/155/8 133/156/8 152/140/8 151/76/8
f 189/157/8 132/152/8 150/142/8 185/141/8
f 190/158/8 148/155/8 151/76/8 188/71/8
f 190/158/10 147/151/10 157/154/10 192/159/10
f 133/156/2 148/155/2 159/160/2 160/161/2
f 189/157/9 133/156/9 160/161/9 191/162/9
f 154/163/8 153/164/8 157/154/8 158/153/8
f 155/165/8 156/166/8 160/161/8 159/160/8
f 193/167/8 154/163/8 158/153/8 191/162/8
f 194/168/8 155/165/8 159/160/8 192/159/8
f 153/164/8 194/168/8 192/159/8 157/154/8
f 156/166/8 193/167/8 191/162/8 160/161/8
f 132/152/9 189/157/9 191/162/9 158/153/9
f 148/155/10 190/158/10 192/159/10 159/160/10
f 147/151/8 190/158/8 188/71/8 149/20/8
f 133/156/8 189/157/8 185/141/8 152/140/8
f 40/77/7 141/138/7 187/143/7 166/70/7
f 141/138/7 134/82/7 186/65/7 187/143/7
f 45/79/8 152/140/8 185/141/8 167/87/8
f 42/81/7 93/128/7 182/129/7 168/66/7
f 93/128/7 75/74/7 181/72/7 182/129/7
f 39/100/10 173/119/10 179/106/10 59/101/10
f 49/86/10 172/85/10 178/109/10 57/108/10
f 62/111/8 180/96/8 178/109/8 58/112/8
f 59/101/8 179/106/8 177/98/8 55/97/8
f 48/84/9 171/83/9 177/98/9 56/104/9
f 35/118/9 174/93/9 180/96/9 62/111/9
f 50/89/8 172/85/8 167/87/8 46/52/8
f 47/91/8 171/83/8 165/68/8 43/78/8
f 75/74/7 37/73/7 169/67/7 181/72/7
f 151/76/8 38/75/8 170/69/8 188/71/8
f 38/75/9 40/77/9 166/70/9 170/69/9
f 37/73/10 43/78/10 165/68/10 169/67/10
f 134/82/7 42/81/7 168/66/7 186/65/7
f 197/169/8 199/170/8 206/171/8 207/172/8
f 119/173/1 120/174/1 207/175/1 206/176/1
f 115/177/9 119/173/9 206/176/9 200/178/9
f 199/170/7 197/169/7 211/179/7 210/180/7
usemtl Material.019
f 193/167/10 156/166/10 164/181/10 195/182/10
f 195/182/19 196/183/19 161/184/19 162/185/19
f 153/164/2 154/163/2 162/185/2 161/184/2
f 194/168/9 153/164/9 161/184/9 196/183/9
f 156/166/1 155/165/1 163/186/1 164/181/1
f 155/165/9 194/168/9 196/183/9 163/186/9
f 164/181/20 163/186/20 196/183/20 195/182/20
f 154/163/10 193/167/10 195/182/10 162/185/10
usemtl Material.005
f 82/187/1 106/188/1 118/189/1 115/190/1
f 54/191/2 105/192/2 117/193/2 112/194/2
f 105/192/2 81/195/2 116/196/2 117/193/2
f 51/197/1 82/187/1 115/190/1 113/198/1
f 176/199/9 54/191/9 112/194/9 183/200/9
f 106/188/1 53/201/1 114/202/1 118/189/1
f 175/203/10 51/197/10 113/198/10 184/204/10
f 81/195/2 52/205/2 111/206/2 116/196/2
f 114/202/9 183/200/9 202/207/9 203/208/9
f 52/205/10 175/203/10 184/204/10 111/206/10
f 53/201/9 176/199/9 183/200/9 114/202/9
f 116/196/2 111/206/2 205/209/2 199/170/2
f 113/198/1 115/190/1 200/210/1 201/211/1
f 197/169/8 207/172/8 203/208/8 202/207/8 198/212/8
f 200/210/8 206/171/8 199/170/8 205/209/8 204/213/8 201/211/8
f 112/194/2 117/193/2 197/169/2 198/212/2
f 120/174/21 114/214/21 203/215/21 207/175/21
f 183/200/9 112/194/9 198/212/9 202/207/9
f 117/193/8 116/196/8 208/216/8 209/217/8
f 184/204/10 113/198/10 201/211/10 204/213/10
f 111/206/10 184/204/10 204/213/10 205/209/10
f 116/196/9 199/170/9 210/180/9 208/216/9
f 197/169/10 117/193/10 209/217/10 211/179/10
usemtl Material.015
f 79/121/22 31/120/22 52/205/22 81/195/22
f 173/119/23 39/100/23 51/197/23 175/203/23
f 104/124/24 41/94/24 53/201/24 106/188/24
f 174/93/25 35/118/25 54/191/25 176/199/25
f 39/100/24 80/99/24 82/187/24 51/197/24
f 103/117/22 79/121/22 81/195/22 105/192/22
f 35/118/22 103/117/22 105/192/22 54/191/22
f 80/99/24 104/124/24 106/188/24 82/187/24
f 41/94/25 174/93/25 176/199/25 53/201/25
f 31/120/23 173/119/23 175/203/23 52/205/23
f 209/217/2 208/216/2 210/180/2 211/179/2
