# Blender v2.82 (sub 7) OBJ File: 'lowpoly_gamerroom_color.blend'
# www.blender.org
mtllib Cup.mtl
o Plane.010_Plane.140
v -2.166039 -1.179100 -1.198723
v -2.059186 -1.179100 -1.163851
v -2.131166 -1.179100 -1.305577
v -2.024313 -1.179100 -1.270704
v -2.150242 -0.859635 -1.343134
v -2.203597 -0.859635 -1.179648
v -2.040110 -0.859635 -1.126293
v -1.986755 -0.859635 -1.289780
v -2.144167 -0.859635 -1.331174
v -2.191636 -0.859635 -1.185723
v -2.046185 -0.859635 -1.138254
v -1.998716 -0.859635 -1.283705
v -2.150242 -0.859635 -1.343134
v -2.203597 -0.859635 -1.179648
v -2.040110 -0.859635 -1.126293
v -1.986755 -0.859635 -1.289780
v -2.129867 -1.161466 -1.303019
v -2.163481 -1.161466 -1.200022
v -2.060484 -1.161466 -1.166409
v -2.026871 -1.161466 -1.269405
vt 0.000000 0.000000
vt 0.000000 1.000000
vt 1.000000 1.000000
vt 1.000000 0.000000
vt 1.000000 0.000000
vt 1.000000 1.000000
vt 1.000000 1.000000
vt 1.000000 0.000000
vt 0.000000 0.000000
vt 0.000000 1.000000
vt 0.944841 0.944841
vt 0.055159 0.944841
vt 0.055159 0.944841
vt 0.944841 0.944841
vt 0.000000 0.000000
vt 0.000000 1.000000
vt 0.055159 0.055159
vt 0.944841 0.055159
vt 0.055159 0.055159
vt 0.944841 0.055159
vn 0.0000 -1.0000 0.0000
vn 0.0000 0.0000 1.0000
vn -0.3089 -0.0928 0.9465
vn 0.9465 -0.0928 0.3089
vn -0.9465 -0.0928 -0.3089
vn 0.3089 -0.0928 -0.9465
vn -0.3094 0.0738 0.9481
vn 0.0000 1.0000 0.0000
vn 0.3094 0.0738 -0.9481
vn -0.9481 0.0738 -0.3094
vn 0.9481 0.0738 0.3094
usemtl Material.002
s off
f 1/1/1 3/2/1 4/3/1 2/4/1
f 7/5/2 8/6/2 16/7/2 15/8/2
f 1/1/3 2/4/3 7/5/3 6/9/3
f 2/4/4 4/3/4 8/6/4 7/5/4
f 3/2/5 1/1/5 6/9/5 5/10/5
f 4/3/6 3/2/6 5/10/6 8/6/6
f 12/11/7 9/12/7 17/13/7 20/14/7
f 5/10/2 6/9/2 14/15/2 13/16/2
f 8/6/2 5/10/2 13/16/2 16/7/2
f 6/9/2 7/5/2 15/8/2 14/15/2
f 10/17/8 9/12/8 13/16/8 14/15/8
f 11/18/8 10/17/8 14/15/8 15/8/8
f 12/11/8 11/18/8 15/8/8 16/7/8
f 9/12/8 12/11/8 16/7/8 13/16/8
f 18/19/8 19/20/8 20/14/8 17/13/8
f 10/17/9 11/18/9 19/20/9 18/19/9
f 11/18/10 12/11/10 20/14/10 19/20/10
f 9/12/11 10/17/11 18/19/11 17/13/11
