# Blender v2.82 (sub 7) OBJ File: 'lowpoly_gamerroom_color.blend'
# www.blender.org
mtllib Floppy.mtl
o Plane.001_Plane.004
v 0.824395 -0.695468 1.939019
v 0.634380 -0.695468 2.144483
v 1.044805 -0.695468 2.142857
v 0.854790 -0.695468 2.348320
v 1.044805 -0.683115 2.142857
v 0.824395 -0.683115 1.939019
v 0.634380 -0.683115 2.144483
v 0.854790 -0.683115 2.348320
v 0.682023 -0.695468 2.092966
v 0.902433 -0.695468 2.296804
v 0.682023 -0.683115 2.092966
v 0.902433 -0.683115 2.296804
v 0.999866 -0.695468 2.191450
v 0.999866 -0.683115 2.191450
v 0.779456 -0.695468 1.987612
v 0.779456 -0.683115 1.987612
v 0.973752 -0.695468 2.077146
v 0.783737 -0.695468 2.282609
v 0.973752 -0.683115 2.077146
v 0.783737 -0.683115 2.282609
v 0.831380 -0.683115 2.231093
v 0.831380 -0.695468 2.231093
v 0.928812 -0.695468 2.125739
v 0.928812 -0.683115 2.125739
v 0.831380 -0.690695 2.231093
v 0.902433 -0.690695 2.296804
v 0.999866 -0.690695 2.191450
v 0.928812 -0.690695 2.125739
vt 0.749268 0.677632
vt 0.749268 1.000000
vt 1.000000 1.000000
vt 1.000000 0.677632
vt 0.749268 0.677632
vt 1.000000 0.677632
vt 1.000000 1.000000
vt 0.749268 1.000000
vt 0.236505 1.000000
vt 0.000000 1.000000
vt 0.000000 1.000000
vt 0.236505 1.000000
vt 0.749268 0.000000
vt 1.000000 0.000000
vt 1.000000 0.000000
vt 0.749268 0.000000
vt 0.000000 0.677632
vt 0.000000 0.000000
vt 0.000000 0.000000
vt 0.000000 0.677632
vt 0.236505 0.000000
vt 0.236505 0.000000
vt 0.749268 1.000000
vt 0.749268 0.677632
vt 0.236505 0.677632
vt 0.236505 0.677632
vt 0.236505 0.677632
vt 0.236505 1.000000
vn 0.0000 -1.0000 0.0000
vn 0.0000 1.0000 0.0000
vn 0.7342 0.0000 0.6790
vn -0.7342 0.0000 -0.6790
vn -0.6790 0.0000 0.7342
vn 0.6790 0.0000 -0.7342
usemtl Material.014
s off
f 22/1/1 10/2/1 4/3/1 18/4/1
f 21/5/2 20/6/2 8/7/2 12/8/2
f 13/9/3 3/10/3 5/11/3 14/12/3
f 9/13/4 2/14/4 7/15/4 11/16/4
f 18/4/5 4/3/5 8/7/5 20/6/5
f 17/17/6 1/18/6 6/19/6 19/20/6
f 15/21/4 9/13/4 11/16/4 16/22/4
f 4/3/3 10/2/3 12/8/3 8/7/3
f 21/5/6 12/8/6 26/23/6 25/24/6
f 23/25/1 13/9/1 10/2/1 22/1/1
f 17/17/1 3/10/1 13/9/1 23/25/1
f 19/20/2 24/26/2 14/12/2 5/11/2
f 1/18/4 15/21/4 16/22/4 6/19/4
f 10/2/3 13/9/3 14/12/3 12/8/3
f 6/19/2 16/22/2 24/26/2 19/20/2
f 1/18/1 17/17/1 23/25/1 15/21/1
f 15/21/1 23/25/1 22/1/1 9/13/1
f 16/22/2 11/16/2 21/5/2 24/26/2
f 3/10/6 17/17/6 19/20/6 5/11/6
f 2/14/5 18/4/5 20/6/5 7/15/5
f 11/16/2 7/15/2 20/6/2 21/5/2
f 9/13/1 22/1/1 18/4/1 2/14/1
f 14/12/5 24/26/5 28/27/5 27/28/5
f 12/8/4 14/12/4 27/28/4 26/23/4
f 24/26/3 21/5/3 25/24/3 28/27/3
usemtl Material.021
f 28/27/2 25/24/2 26/23/2 27/28/2
