# Blender v2.82 (sub 7) OBJ File: 'lowpoly_gamerroom_color.blend'
# www.blender.org
mtllib Monitor1.mtl
o Plane.003_Plane.020
v 1.256464 -0.491485 2.856176
v 1.799075 -0.491485 2.787622
v 1.197793 -0.491485 2.391793
v 1.740404 -0.491485 2.323239
v 1.197793 -0.477513 2.391793
v 1.256464 -0.477513 2.856176
v 1.799075 -0.477513 2.787622
v 1.740404 -0.477513 2.323239
v 1.416818 -0.392128 2.535979
v 1.432746 -0.392128 2.662047
v 1.580050 -0.392128 2.643436
v 1.564123 -0.392128 2.517368
v 1.383582 -0.392128 2.514099
v 1.405995 -0.392128 2.691505
v 1.613286 -0.392128 2.665316
v 1.590873 -0.392128 2.487910
v 1.416818 -0.356477 2.535979
v 1.432746 -0.356477 2.662047
v 1.580050 -0.356477 2.643436
v 1.564123 -0.356477 2.517368
v 1.050008 -0.339253 2.294504
v 1.215015 -0.285845 2.900303
v 1.850198 -0.285845 2.820053
v 1.859350 -0.339253 2.192250
v 1.050008 0.304220 2.294504
v 1.215015 0.103721 2.900303
v 1.850198 0.103721 2.820053
v 1.859350 0.304220 2.192250
v 1.216205 -0.491485 2.537519
v 1.758815 -0.491485 2.468965
v 1.216205 -0.477513 2.537519
v 1.758815 -0.477513 2.468965
v 1.390615 -0.392128 2.569770
v 1.597906 -0.392128 2.543581
v 1.421816 -0.392128 2.575540
v 1.569121 -0.392128 2.556929
v 1.421816 -0.356477 2.575540
v 1.569121 -0.356477 2.556929
v 1.073093 -0.343930 2.488232
v 1.885172 -0.343930 2.385633
v 1.073093 0.290614 2.488232
v 1.885172 0.290614 2.385633
v 1.267051 -0.237975 2.893728
v 1.798161 -0.237975 2.826627
v 1.267051 0.055851 2.893728
v 1.798161 0.055851 2.826627
v 1.215015 -0.285845 2.900303
v 1.850198 -0.285845 2.820053
v 1.215015 0.103721 2.900303
v 1.850198 0.103721 2.820053
v 1.425891 -0.152903 2.914388
v 1.649451 -0.152903 2.886142
v 1.425891 -0.029222 2.914388
v 1.649451 -0.029222 2.886142
v 1.840215 -0.325417 2.180739
v 1.065678 -0.325417 2.278596
v 1.840215 0.290384 2.180739
v 1.065678 0.290384 2.278596
v 1.742817 -0.200762 2.193045
v 1.163076 -0.200762 2.266290
v 1.742817 0.235839 2.193045
v 1.163076 0.235839 2.266290
v 1.840215 -0.325417 2.180739
v 1.065678 -0.325417 2.278596
v 1.840215 0.290384 2.180739
v 1.065678 0.290384 2.278596
v 1.747958 -0.200762 2.233733
v 1.168217 -0.200762 2.306978
v 1.747958 0.235839 2.233733
v 1.168217 0.235839 2.306978
v 1.744766 -0.200762 2.208472
v 1.165025 -0.200762 2.281717
v 1.744766 0.235839 2.208472
v 1.165025 0.235839 2.281717
v 1.751956 -0.200762 2.265376
v 1.172214 -0.200762 2.338622
v 1.751956 0.235839 2.265376
v 1.172214 0.235839 2.338622
v 1.747480 -0.200762 2.229949
v 1.167738 -0.200762 2.303194
v 1.747480 0.235839 2.229949
v 1.167738 0.235839 2.303194
v 1.669403 -0.097241 2.226392
v 1.242477 -0.097241 2.280331
v 1.669403 0.132318 2.226392
v 1.242477 0.132318 2.280331
vt 0.000000 0.686195
vt 0.000000 1.000000
vt 1.000000 1.000000
vt 1.000000 0.686195
vt 1.000000 1.000000
vt 0.000000 1.000000
vt 0.000000 1.000000
vt 1.000000 1.000000
vt 0.000000 0.000000
vt 1.000000 0.000000
vt 1.000000 0.000000
vt 0.000000 0.000000
vt 1.000000 0.686195
vt 0.000000 0.686195
vt 0.855309 0.855309
vt 0.144691 0.855309
vt 0.144691 0.855309
vt 0.855309 0.855309
vt 1.000000 0.000000
vt 0.000000 0.000000
vt 1.000000 0.686195
vt 0.000000 0.686195
vt 0.144691 0.632313
vt 0.855309 0.144691
vt 0.144691 0.144691
vt 0.855309 0.632313
vt 0.144691 0.144691
vt 0.855309 0.144691
vt 0.855309 0.144691
vt 0.144691 0.144691
vt 0.855309 0.632313
vt 0.144691 0.632313
vt 0.855309 0.632313
vt 0.855309 0.855309
vt 0.855309 0.855309
vt 0.855309 0.632313
vt 0.144691 0.632313
vt 0.144691 0.855309
vt 0.144691 0.632313
vt 0.144691 0.855309
vt 0.144691 0.144691
vt 0.144691 0.855309
vt 0.144691 0.855309
vt 0.855309 0.144691
vt 0.855309 0.144691
vt 0.855309 0.144691
vt 0.797093 0.144691
vt 0.797093 0.144691
vt 0.797093 0.144691
vt 0.797093 0.144691
vt 0.144691 0.144691
vt 0.144691 0.144691
vt 0.202907 0.144691
vt 0.202907 0.144691
vt 0.202907 0.144691
vt 0.202907 0.144691
vt 0.855309 0.855309
vt 0.855309 0.855309
vt 0.855309 0.855309
vt 0.855309 0.855309
vt 0.234051 0.855309
vt 0.234051 0.855309
vt 0.234051 0.855309
vt 0.234051 0.855309
vt 0.144691 0.855309
vt 0.144691 0.855309
vt 0.765949 0.855309
vt 0.765949 0.855309
vt 0.765949 0.855309
vt 0.765949 0.855309
vt 0.765949 0.855309
vt 0.765949 0.855309
vt 0.234051 0.855309
vt 0.234051 0.855309
vt 0.765949 0.855309
vt 0.234051 0.855309
vt 0.234051 0.855309
vt 0.765949 0.855309
vt 0.765949 0.855309
vt 0.234051 0.855309
vt 0.234051 0.855309
vt 0.765949 0.855309
vt 0.234051 0.855309
vt 0.234051 0.855309
vt 0.765949 0.855309
vt 0.765949 0.855309
vn 0.0000 -1.0000 -0.0000
vn -0.0637 0.8611 -0.5044
vn -0.1253 0.0000 -0.9921
vn 0.1253 0.0000 0.9921
vn 0.9921 0.0000 -0.1253
vn -0.9921 0.0000 0.1253
vn 0.0637 0.8611 0.5044
vn 0.4474 0.8925 -0.0565
vn -0.4474 0.8925 0.0565
vn 0.0000 1.0000 0.0000
vn 0.0401 -0.9474 0.3175
vn 0.9912 0.0000 -0.1324
vn 0.0292 -0.9993 -0.0239
vn -0.1053 -0.9835 0.1469
vn -0.0075 -0.9982 -0.0597
vn 0.0087 0.9976 0.0690
vn -0.9455 0.0000 0.3256
vn -0.7124 0.0000 -0.7017
vn 0.0000 0.0000 1.0000
vn -0.9930 0.0000 0.1183
vn 0.0503 0.9160 0.3981
vn -0.0343 -0.9993 -0.0159
vn 0.1385 -0.9835 0.1161
vn 0.9968 0.0000 0.0802
vn 0.3716 0.0000 0.9284
vn 0.1132 -0.4290 0.8962
vn -0.1290 0.0000 0.9916
vn 0.1132 0.4290 0.8962
vn -0.0887 0.7067 -0.7020
vn -0.0887 -0.7067 -0.7020
vn 0.5155 0.0000 -0.8569
vn -0.2925 0.0000 -0.9563
vn -0.1243 0.1276 -0.9840
vn 0.0455 0.0000 -0.9990
vn -0.1243 -0.1276 -0.9840
usemtl Material
s off
f 29/1/1 3/2/1 4/3/1 30/4/1
f 8/5/2 5/6/2 13/7/2 16/8/2
f 4/3/3 3/2/3 5/6/3 8/5/3
f 1/9/4 2/10/4 7/11/4 6/12/4
f 30/4/5 4/3/5 8/5/5 32/13/5
f 29/1/6 1/9/6 6/12/6 31/14/6
f 12/15/3 9/16/3 17/17/3 20/18/3
f 6/12/7 7/11/7 15/19/7 14/20/7
f 32/13/8 8/5/8 16/8/8 34/21/8
f 31/14/9 6/12/9 14/20/9 33/22/9
f 35/23/10 9/16/10 13/7/10 33/22/10
f 11/24/10 10/25/10 14/20/10 15/19/10
f 36/26/10 11/24/10 15/19/10 34/21/10
f 9/16/10 12/15/10 16/8/10 13/7/10
f 18/27/11 19/28/11 23/29/11 22/30/11
f 10/25/4 11/24/4 19/28/4 18/27/4
f 36/26/5 12/15/5 20/18/5 38/31/5
f 35/23/6 10/25/6 18/27/6 37/32/6
f 40/33/12 24/34/12 28/35/12 42/36/12
f 38/31/13 20/18/13 24/34/13 40/33/13
f 37/32/14 18/27/14 22/30/14 39/37/14
f 20/18/15 17/17/15 21/38/15 24/34/15
f 41/39/16 42/36/16 28/35/16 25/40/16
f 39/37/17 22/30/17 26/41/17 41/39/17
f 21/38/18 25/40/18 58/42/18 56/43/18
f 23/29/19 27/44/19 50/45/19 48/46/19
f 21/38/20 39/37/20 41/39/20 25/40/20
f 26/41/21 27/44/21 42/36/21 41/39/21
f 17/17/22 37/32/22 39/37/22 21/38/22
f 19/28/23 38/31/23 40/33/23 23/29/23
f 23/29/24 40/33/24 42/36/24 27/44/24
f 9/16/6 35/23/6 37/32/6 17/17/6
f 11/24/5 36/26/5 38/31/5 19/28/5
f 12/15/10 36/26/10 34/21/10 16/8/10
f 10/25/10 35/23/10 33/22/10 14/20/10
f 5/6/9 31/14/9 33/22/9 13/7/9
f 7/11/8 32/13/8 34/21/8 15/19/8
f 3/2/6 29/1/6 31/14/6 5/6/6
f 2/10/5 30/4/5 32/13/5 7/11/5
f 1/9/1 29/1/1 30/4/1 2/10/1
f 44/47/25 46/48/25 54/49/25 52/50/25
f 27/44/19 26/41/19 49/51/19 50/45/19
f 26/41/19 22/30/19 47/52/19 49/51/19
f 22/30/19 23/29/19 48/46/19 47/52/19
f 44/47/4 43/53/4 47/52/4 48/46/4
f 45/54/4 46/48/4 50/45/4 49/51/4
f 46/48/4 44/47/4 48/46/4 50/45/4
f 43/53/4 45/54/4 49/51/4 47/52/4
f 51/55/4 52/50/4 54/49/4 53/56/4
f 43/53/26 44/47/26 52/50/26 51/55/26
f 45/54/27 43/53/27 51/55/27 53/56/27
f 46/48/28 45/54/28 53/56/28 54/49/28
f 57/57/19 55/58/19 63/59/19 65/60/19
f 25/40/29 28/35/29 57/57/29 58/42/29
f 24/34/30 21/38/30 56/43/30 55/58/30
f 28/35/31 24/34/31 55/58/31 57/57/31
f 60/61/5 62/62/5 70/63/5 68/64/5
f 55/58/19 56/43/19 64/65/19 63/59/19
f 56/43/19 58/42/19 66/66/19 64/65/19
f 58/42/19 57/57/19 65/60/19 66/66/19
f 60/61/3 59/67/3 63/59/3 64/65/3
f 61/68/3 62/62/3 66/66/3 65/60/3
f 59/67/3 61/68/3 65/60/3 63/59/3
f 62/62/3 60/61/3 64/65/3 66/66/3
f 69/69/5 67/70/5 71/71/5 73/72/5
f 62/62/1 61/68/1 69/69/1 70/63/1
f 61/68/6 59/67/6 67/70/6 69/69/6
f 59/67/10 60/61/10 68/64/10 67/70/10
f 67/70/1 68/64/1 72/73/1 71/71/1
f 68/64/6 70/63/6 74/74/6 72/73/6
f 70/63/10 69/69/10 73/72/10 74/74/10
f 74/74/1 73/72/1 77/75/1 78/76/1
f 72/73/5 74/74/5 78/76/5 76/77/5
f 71/71/10 72/73/10 76/77/10 75/78/10
f 73/72/6 71/71/6 75/78/6 77/75/6
f 78/76/10 77/75/10 81/79/10 82/80/10
f 76/77/6 78/76/6 82/80/6 80/81/6
f 75/78/1 76/77/1 80/81/1 79/82/1
f 77/75/5 75/78/5 79/82/5 81/79/5
usemtl Material.031
f 80/81/32 82/80/32 86/83/32 84/84/32
f 83/85/3 84/84/3 86/83/3 85/86/3
f 82/80/33 81/79/33 85/86/33 86/83/33
f 81/79/34 79/82/34 83/85/34 85/86/34
f 79/82/35 80/81/35 84/84/35 83/85/35
